<svg width="32" height="32" viewBox="0 0 32 32" fill="none" xmlns="http://www.w3.org/2000/svg">
  <!-- Background circle -->
  <circle cx="16" cy="16" r="16" fill="#10b981"/>
  
  <!-- Binary tree structure representing data structures -->
  <circle cx="16" cy="8" r="2" fill="white"/>
  <circle cx="12" cy="14" r="2" fill="white"/>
  <circle cx="20" cy="14" r="2" fill="white"/>
  <circle cx="10" cy="20" r="2" fill="white"/>
  <circle cx="14" cy="20" r="2" fill="white"/>
  <circle cx="18" cy="20" r="2" fill="white"/>
  <circle cx="22" cy="20" r="2" fill="white"/>
  
  <!-- Connecting lines -->
  <line x1="16" y1="10" x2="12" y2="12" stroke="white" stroke-width="1.5"/>
  <line x1="16" y1="10" x2="20" y2="12" stroke="white" stroke-width="1.5"/>
  <line x1="12" y1="16" x2="10" y2="18" stroke="white" stroke-width="1.5"/>
  <line x1="12" y1="16" x2="14" y2="18" stroke="white" stroke-width="1.5"/>
  <line x1="20" y1="16" x2="18" y2="18" stroke="white" stroke-width="1.5"/>
  <line x1="20" y1="16" x2="22" y2="18" stroke="white" stroke-width="1.5"/>
  
  <!-- Algorithm representation - flow chart elements -->
  <rect x="6" y="24" width="4" height="3" rx="1" fill="white" opacity="0.8"/>
  <rect x="11" y="24" width="4" height="3" rx="1" fill="white" opacity="0.8"/>
  <rect x="16" y="24" width="4" height="3" rx="1" fill="white" opacity="0.8"/>
  <rect x="21" y="24" width="4" height="3" rx="1" fill="white" opacity="0.8"/>
  
  <!-- Arrow connecting the flow -->
  <path d="M10 25.5 L11 25.5 M15 25.5 L16 25.5 M20 25.5 L21 25.5" stroke="white" stroke-width="1" opacity="0.6"/>
</svg>
